<svg width="25" height="25" viewBox="0 0 25 25" fill="none" xmlns="http://www.w3.org/2000/svg">
<path d="M1.5625 11.7188V21.0938C1.5625 22.3862 2.61383 23.4375 3.90625 23.4375H21.0938C22.3862 23.4375 23.4375 22.3862 23.4375 21.0938V11.7188H1.5625ZM7.58362 19.7601C7.88879 20.0653 7.88879 20.5597 7.58362 20.8649C7.43103 21.0175 7.23114 21.0938 7.03125 21.0938C6.83136 21.0938 6.63147 21.0175 6.47888 20.8649L6.25 20.636L6.02112 20.8649C5.86853 21.0175 5.66864 21.0938 5.46875 21.0938C5.26886 21.0938 5.06897 21.0175 4.91638 20.8649C4.61121 20.5597 4.61121 20.0653 4.91638 19.7601L5.14526 19.5312L4.91638 19.3024C4.61121 18.9972 4.61121 18.5028 4.91638 18.1976C5.22156 17.8925 5.71594 17.8925 6.02112 18.1976L6.25 18.4265L6.47888 18.1976C6.78406 17.8925 7.27844 17.8925 7.58362 18.1976C7.88879 18.5028 7.88879 18.9972 7.58362 19.3024L7.35474 19.5312L7.58362 19.7601ZM6.25 16.4062C5.38826 16.4062 4.6875 15.7055 4.6875 14.8438C4.6875 13.982 5.38826 13.2812 6.25 13.2812C7.11174 13.2812 7.8125 13.982 7.8125 14.8438C7.8125 15.7055 7.11174 16.4062 6.25 16.4062ZM8.59375 14.8438C8.59375 13.982 9.29451 13.2812 10.1562 13.2812C11.018 13.2812 11.7188 13.982 11.7188 14.8438C11.7188 15.7055 11.018 16.4062 10.1562 16.4062C9.29451 16.4062 8.59375 15.7055 8.59375 14.8438ZM10.9375 21.0938C10.0758 21.0938 9.375 20.393 9.375 19.5312C9.375 18.6695 10.0758 17.9688 10.9375 17.9688C11.7992 17.9688 12.5 18.6695 12.5 19.5312C12.5 20.393 11.7992 21.0938 10.9375 21.0938ZM12.5 14.8438C12.5 13.982 13.2008 13.2812 14.0625 13.2812C14.9242 13.2812 15.625 13.982 15.625 14.8438C15.625 15.7055 14.9242 16.4062 14.0625 16.4062C13.2008 16.4062 12.5 15.7055 12.5 14.8438ZM14.8438 21.0938C13.982 21.0938 13.2812 20.393 13.2812 19.5312C13.2812 18.6695 13.982 17.9688 14.8438 17.9688C15.7055 17.9688 16.4062 18.6695 16.4062 19.5312C16.4062 20.393 15.7055 21.0938 14.8438 21.0938ZM18.75 21.0938C17.8883 21.0938 17.1875 20.393 17.1875 19.5312C17.1875 18.6695 17.8883 17.9688 18.75 17.9688C19.6117 17.9688 20.3125 18.6695 20.3125 19.5312C20.3125 20.393 19.6117 21.0938 18.75 21.0938ZM20.0836 15.0726C20.3888 15.3778 20.3888 15.8722 20.0836 16.1774C19.931 16.33 19.7311 16.4062 19.5312 16.4062C19.3314 16.4062 19.1315 16.33 18.9789 16.1774L18.75 15.9485L18.5211 16.1774C18.3685 16.33 18.1686 16.4062 17.9688 16.4062C17.7689 16.4062 17.569 16.33 17.4164 16.1774C17.1112 15.8722 17.1112 15.3778 17.4164 15.0726L17.6453 14.8438L17.4164 14.6149C17.1112 14.3097 17.1112 13.8153 17.4164 13.5101C17.7216 13.205 18.2159 13.205 18.5211 13.5101L18.75 13.739L18.9789 13.5101C19.2841 13.205 19.7784 13.205 20.0836 13.5101C20.3888 13.8153 20.3888 14.3097 20.0836 14.6149L19.8547 14.8438L20.0836 15.0726Z" fill="#EBEBEB"/>
<path d="M7.03125 7.03125H7.03125C6.1683 7.03125 5.46875 6.33169 5.46875 5.46875L5.46875 3.90625C5.46875 3.0433 6.16831 2.34375 7.03125 2.34375H7.03125C7.8942 2.34375 8.59375 3.0433 8.59375 3.90625L8.59375 5.46875C8.59375 6.3317 7.8942 7.03125 7.03125 7.03125Z" fill="#EBEBEB"/>
<path d="M21.0938 4.6875V5.46875C21.0938 7.19185 19.6918 8.59375 17.9688 8.59375C16.2457 8.59375 14.8438 7.19185 14.8438 5.46875V4.6875H10.9375H10.1562V5.46875C10.1562 7.19185 8.75435 8.59375 7.03125 8.59375C5.30815 8.59375 3.90625 7.19185 3.90625 5.46875V4.6875C2.61383 4.6875 1.5625 5.73883 1.5625 7.03125V10.1562H23.4375V7.03125C23.4375 5.73883 22.3862 4.6875 21.0938 4.6875Z" fill="#EBEBEB"/>
<path d="M17.9688 7.03125H17.9687C17.1058 7.03125 16.4062 6.33169 16.4062 5.46875L16.4063 3.90625C16.4063 3.0433 17.1058 2.34375 17.9687 2.34375H17.9688C18.8317 2.34375 19.5313 3.0433 19.5313 3.90625L19.5313 5.46875C19.5313 6.3317 18.8317 7.03125 17.9688 7.03125Z" fill="#EBEBEB"/>
</svg>
