<svg width="25" height="25" viewBox="0 0 25 25" fill="none" xmlns="http://www.w3.org/2000/svg">
<path d="M12.472 25C19.3601 25 24.944 19.4036 24.944 12.5C24.944 5.59644 19.3601 0 12.472 0C5.58391 0 0 5.59644 0 12.5C0 19.4036 5.58391 25 12.472 25Z" fill="#D8B08C" fill-opacity="0.182348"/>
<path fill-rule="evenodd" clip-rule="evenodd" d="M10.9778 13.6088C10.9778 13.4587 10.8637 13.3372 10.7229 13.3372H9.83309C9.69241 13.3372 9.57825 13.4587 9.57825 13.6088V14.5575C9.57825 14.7078 9.69241 14.8294 9.83309 14.8294H10.7229C10.8637 14.8294 10.9778 14.7078 10.9778 14.5575V13.6088V13.6088Z" fill="#D8B08C"/>
<path fill-rule="evenodd" clip-rule="evenodd" d="M13.2016 13.6088C13.2016 13.4587 13.0874 13.3372 12.9469 13.3372H12.057C11.9163 13.3372 11.8021 13.4587 11.8021 13.6088V14.5575C11.8021 14.7078 11.9163 14.8294 12.057 14.8294H12.9469C13.0874 14.8294 13.2016 14.7078 13.2016 14.5575V13.6088Z" fill="#D8B08C"/>
<path fill-rule="evenodd" clip-rule="evenodd" d="M15.4254 13.6088C15.4254 13.4587 15.3112 13.3372 15.1705 13.3372H14.2807C14.1399 13.3372 14.0258 13.4587 14.0258 13.6088V14.5575C14.0258 14.7078 14.1399 14.8294 14.2807 14.8294H15.1705C15.3112 14.8294 15.4254 14.7078 15.4254 14.5575V13.6088Z" fill="#D8B08C"/>
<path fill-rule="evenodd" clip-rule="evenodd" d="M10.9778 15.9803C10.9778 15.83 10.8637 15.7085 10.7229 15.7085H9.83309C9.69241 15.7085 9.57825 15.83 9.57825 15.9803V16.9288C9.57825 17.079 9.69241 17.2006 9.83309 17.2006H10.7229C10.8637 17.2006 10.9778 17.079 10.9778 16.9288V15.9803V15.9803Z" fill="#D8B08C"/>
<path fill-rule="evenodd" clip-rule="evenodd" d="M13.2016 15.9803C13.2016 15.83 13.0874 15.7085 12.9469 15.7085H12.057C11.9163 15.7085 11.8021 15.83 11.8021 15.9803V16.9288C11.8021 17.079 11.9163 17.2006 12.057 17.2006H12.9469C13.0874 17.2006 13.2016 17.079 13.2016 16.9288V15.9803Z" fill="#D8B08C"/>
<path fill-rule="evenodd" clip-rule="evenodd" d="M15.4254 15.9803C15.4254 15.83 15.3112 15.7085 15.1706 15.7085H14.2807C14.1399 15.7085 14.0258 15.83 14.0258 15.9803V16.9288C14.0258 17.079 14.1399 17.2006 14.2807 17.2006H15.1706C15.3112 17.2006 15.4254 17.079 15.4254 16.9288V15.9803V15.9803Z" fill="#D8B08C"/>
<path fill-rule="evenodd" clip-rule="evenodd" d="M17.0164 9.7829V8.33382C17.5531 8.35107 17.9941 8.82466 17.9941 9.40677V17.8991C17.9941 18.4911 17.5425 18.9792 16.9872 18.9792H8.01644C7.46029 18.9792 7.00952 18.4921 7.00952 17.8991V9.40677C7.00952 8.82466 7.45056 8.35107 7.98728 8.33382V9.7829C7.98728 10.4379 8.48552 10.9657 9.09961 10.9657H9.80147C10.4155 10.9657 10.9204 10.4379 10.9204 9.7829V8.32861H14.0832V9.7829C14.0832 10.4379 14.5881 10.9657 15.2023 10.9657H15.904C16.5181 10.9657 17.0164 10.4379 17.0164 9.7829ZM16.2551 17.8345C16.4956 17.8345 16.6904 17.6265 16.6904 17.3702L16.6904 12.9837C16.6904 12.7273 16.4955 12.5193 16.2551 12.5193H8.72932C8.48886 12.5193 8.29401 12.7273 8.29401 12.9837V17.3702C8.29401 17.6265 8.48888 17.8345 8.72932 17.8345H16.2551Z" fill="#D8B08C"/>
<path fill-rule="evenodd" clip-rule="evenodd" d="M9.0972 10.1888H9.7913C10.002 10.1888 10.1728 10.0069 10.1728 9.78228V7.4067C10.1728 7.18201 10.002 7 9.7913 7H9.0972C8.8865 7 8.7157 7.18201 8.7157 7.4067V9.78228C8.7157 10.0069 8.8865 10.1888 9.0972 10.1888Z" fill="#D8B08C"/>
<path fill-rule="evenodd" clip-rule="evenodd" d="M15.1934 10.1888H15.8875C16.098 10.1888 16.2688 10.0069 16.2688 9.78228V7.4067C16.2689 7.18201 16.098 7 15.8875 7H15.1934C14.9827 7 14.8119 7.18201 14.8119 7.4067V9.78228C14.8119 10.0069 14.9827 10.1888 15.1934 10.1888Z" fill="#D8B08C"/>
</svg>
