<svg width="26" height="22" viewBox="0 0 26 22" fill="none" xmlns="http://www.w3.org/2000/svg">
<path d="M24.375 0.0625H20.875H17.375H1.625C1.14376 0.0625 0.75 0.456261 0.75 0.9375V4.4375V21.0625C0.75 21.5437 1.14376 21.9375 1.625 21.9375H24.375C24.8562 21.9375 25.25 21.5437 25.25 21.0625V4.4375V0.9375C25.25 0.456261 24.8562 0.0625 24.375 0.0625ZM18.25 1.8125H20V3.5625H18.25V1.8125ZM2.5 1.8125H16.5V3.5625H2.5V1.8125ZM12.125 18.875C12.125 19.3586 11.7336 19.75 11.25 19.75H5.125C4.64136 19.75 4.25 19.3586 4.25 18.875V14.5C4.25 14.0164 4.64136 13.625 5.125 13.625H11.25C11.7336 13.625 12.125 14.0164 12.125 14.5V18.875ZM12.125 11C12.125 11.4836 11.7336 11.875 11.25 11.875H5.125C4.64136 11.875 4.25 11.4836 4.25 11V6.625C4.25 6.14136 4.64136 5.75 5.125 5.75H11.25C11.7336 5.75 12.125 6.14136 12.125 6.625V11ZM20.875 18.875H14.75C14.2664 18.875 13.875 18.4836 13.875 18C13.875 17.5164 14.2664 17.125 14.75 17.125H20.875C21.3586 17.125 21.75 17.5164 21.75 18C21.75 18.4836 21.3586 18.875 20.875 18.875ZM20.875 16.25H16.5C16.0164 16.25 15.625 15.8586 15.625 15.375C15.625 14.8914 16.0164 14.5 16.5 14.5H20.875C21.3586 14.5 21.75 14.8914 21.75 15.375C21.75 15.8586 21.3586 16.25 20.875 16.25ZM20.875 11H14.75C14.2664 11 13.875 10.6086 13.875 10.125C13.875 9.64136 14.2664 9.25 14.75 9.25H20.875C21.3586 9.25 21.75 9.64136 21.75 10.125C21.75 10.6086 21.3586 11 20.875 11ZM20.875 8.375H16.5C16.0164 8.375 15.625 7.98364 15.625 7.5C15.625 7.01636 16.0164 6.625 16.5 6.625H20.875C21.3586 6.625 21.75 7.01636 21.75 7.5C21.75 7.98364 21.3586 8.375 20.875 8.375ZM23.5 3.5625H21.75V1.8125H23.5V3.5625Z" fill="#EBEBEB"/>
</svg>
