<svg width="25" height="25" viewBox="0 0 25 25" fill="none" xmlns="http://www.w3.org/2000/svg">
<path d="M14.6958 12.7937C16.121 12.7937 17.2764 11.6567 17.2764 10.254C17.2764 8.85141 16.121 7.71436 14.6958 7.71436C13.2705 7.71436 12.1151 8.85141 12.1151 10.254C12.1151 11.6567 13.2705 12.7937 14.6958 12.7937Z" fill="#D8B08C"/>
<path d="M19.1777 16.3493H10.2157C10.0834 16.3493 10.0047 16.2187 10.0798 16.1244C11.1847 14.7091 12.8419 13.8096 14.6958 13.8096C16.5497 13.8096 18.2069 14.7091 19.3118 16.1244C19.3869 16.2203 19.3082 16.3493 19.1777 16.3493Z" fill="#D8B08C"/>
<path d="M11.4885 13.1819C13.1563 13.1819 14.5207 11.8494 14.5207 10.1906C14.5207 8.53173 13.1563 7.19927 11.4885 7.19927C9.82065 7.19927 8.45622 8.53173 8.45622 10.1906C8.45622 11.8494 9.82065 13.1819 11.4885 13.1819Z" fill="#D8B08C" stroke="white" stroke-width="0.903226"/>
<path d="M16.2073 16.6702L16.0983 16.7374H15.9703H7.0083C6.79016 16.7374 6.5877 16.6272 6.47596 16.4421C6.35996 16.2499 6.35465 15.9881 6.51742 15.7818C7.69963 14.268 9.48316 13.2945 11.4884 13.2945C13.494 13.2945 15.2778 14.2684 16.46 15.7825L16.2073 16.6702ZM16.2073 16.6702L15.9703 16.2858M16.2073 16.6702L15.9703 16.2858M15.9703 16.2858C16.2073 16.6702 16.2074 16.6701 16.2075 16.6701L16.2077 16.67L16.2081 16.6697L16.209 16.6692L16.2109 16.6679L16.2159 16.6648L16.2296 16.6559C16.2401 16.6488 16.2539 16.6393 16.2697 16.6277C16.2996 16.6057 16.3447 16.5701 16.3896 16.5238C16.4288 16.4834 16.5 16.4027 16.5409 16.2871C16.5901 16.1479 16.593 15.9529 16.4604 15.783L15.9703 16.2858Z" fill="#D8B08C" stroke="white" stroke-width="0.903226"/>
<path d="M12.472 25C19.3601 25 24.944 19.4036 24.944 12.5C24.944 5.59644 19.3601 0 12.472 0C5.58391 0 0 5.59644 0 12.5C0 19.4036 5.58391 25 12.472 25Z" fill="#D8B08C" fill-opacity="0.182348"/>
</svg>
