<svg width="22" height="21" viewBox="0 0 22 21" fill="none" xmlns="http://www.w3.org/2000/svg">
<path fill-rule="evenodd" clip-rule="evenodd" d="M19.7624 0H2.1176C0.951304 0 0 0.922687 0 2.05125C0 3.17981 0.951304 4.1025 2.1176 4.1025H19.7624C20.9287 4.1025 21.88 3.17981 21.88 2.05125C21.88 0.922687 20.9287 0 19.7624 0Z" fill="#EBEBEB"/>
<path fill-rule="evenodd" clip-rule="evenodd" d="M19.7624 8.20502H2.1176C0.951304 8.20502 0 9.1277 0 10.2563C0 11.3848 0.951304 12.3075 2.1176 12.3075H19.7624C20.9287 12.3075 21.88 11.3848 21.88 10.2563C21.88 9.1277 20.9287 8.20502 19.7624 8.20502Z" fill="#EBEBEB"/>
<path fill-rule="evenodd" clip-rule="evenodd" d="M19.7624 16.7776H2.1176C0.951304 16.7776 0 17.7003 0 18.8288C0 19.9574 0.951304 20.8801 2.1176 20.8801H19.7624C20.9287 20.8801 21.88 19.9574 21.88 18.8288C21.88 17.7003 20.9287 16.7776 19.7624 16.7776Z" fill="#EBEBEB"/>
</svg>
