<svg width="18" height="22" viewBox="0 0 18 22" fill="none" xmlns="http://www.w3.org/2000/svg">
<path d="M12.5 5.46875C12.0682 5.46875 11.7188 5.11932 11.7188 4.6875V0H0.78125C0.349808 0 0 0.349426 0 0.78125V16.4062H4.6875C5.11894 16.4062 5.46875 16.7557 5.46875 17.1875V21.875H16.4062C16.8381 21.875 17.1875 21.5256 17.1875 21.0938V5.46875H12.5ZM3.125 3.90625C3.125 3.47443 3.47481 3.125 3.90625 3.125H9.375C9.80682 3.125 10.1562 3.47443 10.1562 3.90625V6.25C10.1562 6.68182 9.80682 7.03125 9.375 7.03125H3.90625C3.47481 7.03125 3.125 6.68182 3.125 6.25V3.90625ZM13.2812 18.75H7.8125C7.38106 18.75 7.03125 18.4006 7.03125 17.9688C7.03125 17.5369 7.38106 17.1875 7.8125 17.1875H13.2812C13.7131 17.1875 14.0625 17.5369 14.0625 17.9688C14.0625 18.4006 13.7131 18.75 13.2812 18.75ZM13.2812 15.625H7.8125C7.38106 15.625 7.03125 15.2756 7.03125 14.8438C7.03125 14.4119 7.38106 14.0625 7.8125 14.0625H13.2812C13.7131 14.0625 14.0625 14.4119 14.0625 14.8438C14.0625 15.2756 13.7131 15.625 13.2812 15.625ZM14.0625 11.7188C14.0625 12.1506 13.7131 12.5 13.2812 12.5H3.90625C3.47481 12.5 3.125 12.1506 3.125 11.7188V9.375C3.125 8.94318 3.47481 8.59375 3.90625 8.59375H13.2812C13.7131 8.59375 14.0625 8.94318 14.0625 9.375V11.7188Z" fill="#EBEBEB"/>
</svg>
