<svg width="17" height="16" viewBox="0 0 17 16" fill="none" xmlns="http://www.w3.org/2000/svg">
<path fill-rule="evenodd" clip-rule="evenodd" d="M12.7348 10.8624L16.8366 14.8974C17.0675 15.1625 17.052 15.5576 16.8009 15.8043C16.5499 16.0511 16.1479 16.0663 15.8782 15.8394L11.773 11.8076C8.97967 14.0497 4.88851 13.7456 2.46991 11.1162C0.0512975 8.48683 0.154501 4.45538 2.70459 1.94887C5.25467 -0.557636 9.35621 -0.659076 12.0313 1.7182C14.7064 4.09548 15.0158 8.11672 12.7348 10.8624ZM5.42177 1.74184C3.40024 2.56597 2.08296 4.50603 2.08434 6.65715C2.08995 9.59121 4.50943 11.9678 7.4945 11.9715C9.68302 11.9715 11.656 10.6755 12.4932 8.68804C13.3304 6.70053 12.8669 4.41303 11.3189 2.89243C9.77087 1.37184 7.4433 0.917705 5.42177 1.74184Z" fill="#FECC9C"/>
</svg>
