<svg width="30" height="30" viewBox="0 0 30 30" fill="none" xmlns="http://www.w3.org/2000/svg">
<path fill-rule="evenodd" clip-rule="evenodd" d="M15 30C23.2843 30 30 23.2847 30 15C30 6.71531 23.2843 0 15 0C6.71569 0 0 6.71531 0 15C0 23.2847 6.71569 30 15 30Z" fill="#FECC9C" fill-opacity="0.21"/>
<g clip-path="url(#clip0)">
<path d="M20.798 16.5291C20.6636 16.3944 20.5 16.3271 20.3077 16.3271H17.2284C17.1275 16.5963 16.958 16.8175 16.72 16.9905C16.4819 17.1636 16.2164 17.2502 15.9232 17.2502H14.0769C13.7836 17.2502 13.518 17.1636 13.2801 16.9905C13.042 16.8175 12.8726 16.5964 12.7717 16.3271H9.6923C9.50003 16.3271 9.33658 16.3944 9.20192 16.5291C9.06729 16.6636 9 16.827 9 17.0194V19.3271C9 19.5193 9.06729 19.6829 9.20192 19.8173C9.33655 19.952 9.5 20.0192 9.6923 20.0192H20.3078C20.5 20.0192 20.6636 19.952 20.7981 19.8173C20.9328 19.6828 21 19.5193 21 19.3271V17.0194C21 16.827 20.9328 16.6638 20.798 16.5291ZM18.0939 18.9593C18.0024 19.0506 17.8942 19.0964 17.7692 19.0964C17.6442 19.0964 17.5361 19.0506 17.4447 18.9593C17.3534 18.868 17.3078 18.7598 17.3078 18.6348C17.3078 18.5098 17.3534 18.4015 17.4447 18.3103C17.5361 18.219 17.6442 18.1732 17.7692 18.1732C17.8942 18.1732 18.0024 18.219 18.0939 18.3103C18.1851 18.4014 18.2308 18.5098 18.2308 18.6348C18.2308 18.7598 18.1851 18.868 18.0939 18.9593ZM19.9399 18.9593C19.8486 19.0506 19.7404 19.0964 19.6154 19.0964C19.4904 19.0964 19.3823 19.0506 19.2909 18.9593C19.1996 18.868 19.154 18.7598 19.154 18.6348C19.154 18.5098 19.1996 18.4015 19.2909 18.3103C19.3822 18.219 19.4904 18.1732 19.6154 18.1732C19.7404 18.1732 19.8486 18.219 19.9399 18.3103C20.0313 18.4014 20.077 18.5098 20.077 18.6348C20.077 18.7598 20.0313 18.868 19.9399 18.9593Z" fill="#D8B08C"/>
<path d="M11.7692 12.6349H13.6153V15.8658C13.6153 15.9908 13.661 16.099 13.7523 16.1903C13.8437 16.2815 13.9519 16.3274 14.0768 16.3274H15.9232C16.0482 16.3274 16.1562 16.2816 16.2477 16.1903C16.339 16.099 16.3846 15.9908 16.3846 15.8658V12.6349H18.2308C18.4328 12.6349 18.5747 12.5387 18.6563 12.3465C18.738 12.159 18.7043 11.9931 18.5553 11.8488L15.3245 8.61801C15.2378 8.52665 15.1298 8.48096 15 8.48096C14.8702 8.48096 14.762 8.52665 14.6755 8.61801L11.4447 11.8488C11.2956 11.9931 11.262 12.1589 11.3437 12.3465C11.4255 12.5388 11.5673 12.6349 11.7692 12.6349Z" fill="#D8B08C"/>
</g>
<defs>
<clipPath id="clip0">
<rect width="12" height="12" fill="white" transform="translate(9 8.25)"/>
</clipPath>
</defs>
</svg>
