<svg width="25" height="25" viewBox="0 0 25 25" fill="none" xmlns="http://www.w3.org/2000/svg">
<path d="M10.0222 4.6127C9.78004 4.67026 9.58456 4.84854 9.5056 5.08508C9.50047 5.10048 8.96566 6.47319 6.59375 6.71135V6.03125C6.59375 3.25732 8.85072 1 11.625 1C14.3989 1 16.6562 3.25732 16.6562 6.03125V6.7314C12.5409 6.54588 10.7113 4.81959 10.6957 4.80432C10.5195 4.62814 10.2651 4.55655 10.0222 4.6127Z" fill="#FECC9C"/>
<path d="M16.6562 8.90619C16.6562 11.6801 14.3989 13.9374 11.625 13.9374C8.85072 13.9374 6.59375 11.6801 6.59375 8.90619V8.1512C8.7124 7.97871 9.83549 7.07369 10.3865 6.37302C11.3642 7.0257 13.4003 8.02552 16.6562 8.16059V8.90619Z" fill="#FECC9C"/>
<path d="M11.625 15.3749C12.4377 15.3749 13.208 15.2086 13.925 14.9336L11.625 17.2335L9.32499 14.9335C10.042 15.2086 10.8123 15.3749 11.625 15.3749Z" fill="#FECC9C"/>
<path d="M17.4404 15.8534L15.7587 15.1326L12.1332 18.7582C11.9928 18.8986 11.8089 18.9688 11.625 18.9688C11.4411 18.9688 11.2572 18.8986 11.1168 18.7582L7.49127 15.1326L3.43553 16.8708C3.17126 16.9838 3 17.2435 3 17.5313V20.4063C3 20.8035 3.32182 21.125 3.71875 21.125H14.1563C14.1356 20.9404 14.125 20.7527 14.125 20.5625C14.125 18.3922 15.5078 16.5448 17.4404 15.8534Z" fill="#FECC9C"/>
<path fill-rule="evenodd" clip-rule="evenodd" d="M18.625 23.5625C20.558 23.5625 22.125 21.9955 22.125 20.0625C22.125 18.1295 20.558 16.5625 18.625 16.5625C16.692 16.5625 15.125 18.1295 15.125 20.0625C15.125 21.9955 16.692 23.5625 18.625 23.5625ZM18.125 19.5625V18.5625H19.125V19.5625H20.125V20.5625H19.125V21.5625H18.125V20.5625H17.125V19.5625H18.125Z" fill="#FECC9C"/>
</svg>
